<?xml version="1.0" encoding="utf-8"?>
<!-- Generator: Adobe Illustrator 24.2.1, SVG Export Plug-In . SVG Version: 6.00 Build 0)  -->
<svg version="1.1" id="Layer_1" xmlns="http://www.w3.org/2000/svg" xmlns:xlink="http://www.w3.org/1999/xlink" x="0px" y="0px"
	 viewBox="0 0 1230 108" style="enable-background:new 0 0 1230 108;" xml:space="preserve">
<style type="text/css">
	.st0{fill:#999999;}
	.st1{fill:#19F228;}
	.st2{fill:#62E010;}
	.st3{stroke:#000000;stroke-miterlimit:10;}
	.st4{fill:#03FF03;stroke:#000000;stroke-miterlimit:10;}
	.st5{fill:#00FF06;}
	.st6{fill:#03F903;stroke:#000000;stroke-miterlimit:10;}
	.st7{fill:#999999;stroke:#000000;stroke-miterlimit:10;}
</style>
<g>
	<rect x="6.5" y="8.5" class="st0" width="1217" height="85"/>
	<path d="M1223,9v84H7V9H1223 M1224,8H6v86h1218V8L1224,8z"/>
</g>
<g>
	<rect x="0.5" y="0.5" class="st1" width="12" height="80"/>
	<path d="M12,1v79H1V1H12 M13,0H0v81h13V0L13,0z"/>
</g>
<g>
	<rect x="1217.5" y="0.5" class="st2" width="12" height="80"/>
	<path d="M1229,1v79h-11V1H1229 M1230,0h-13v81h13V0L1230,0z"/>
</g>
<g>
	<rect x="1.5" y="81.5" width="10" height="26"/>
	<path d="M11,82v25H2V82H11 M12,81H1v27h11V81L12,81z"/>
</g>
<g>
	<rect x="1218.5" y="80.5" width="10" height="26"/>
	<path d="M1228,81v25h-9V81H1228 M1229,80h-11v27h11V80L1229,80z"/>
</g>
<g>
	<rect x="13.5" y="93.5" width="1203" height="13"/>
	<g>
		<path d="M1216,94v12H14V94H1216 M1217,93H13v14h1204V93L1217,93z"/>
	</g>
</g>
<rect x="1200.5" y="27.5" class="st3" width="8" height="16"/>
<rect x="23.5" y="24.5" class="st3" width="8" height="16"/>
<rect x="1175.5" y="22.5" class="st4" width="16" height="63"/>
<rect x="1180.5" y="30.5" class="st3" width="6" height="16"/>
<rect x="830.5" y="7.5" class="st3" width="7" height="92"/>
<rect x="397.5" y="7.5" class="st3" width="7" height="92"/>
<rect x="409.5" y="24.5" class="st3" width="43" height="32"/>
<g>
	<rect x="307.9" y="30.9" class="st5" width="34" height="59"/>
	<path d="M341.4,31.4v58h-33v-58H341.4 M342.4,30.4h-35v60h35V30.4L342.4,30.4z"/>
</g>
<g>
	<path d="M324.9,90.2c0.2,0,0.3,0.1,0.5,0.2l0-59.9h-0.8l0,59.9C324.6,90.2,324.8,90.2,324.9,90.2z"/>
	<path d="M324.6,30.5l0,59.9c0.1-0.1,0.2-0.1,0.4-0.1c0.2,0,0.3,0.1,0.5,0.2l0-59.9H324.6L324.6,30.5z"/>
</g>
<g>
	<rect x="314" y="36.9" width="5" height="20.2"/>
	<path d="M318.4,37.4v19.2h-4V37.4H318.4 M319.4,36.4h-6v21.2h6V36.4L319.4,36.4z"/>
</g>
<g>
	<rect x="331.9" y="36.9" width="5" height="20"/>
	<path d="M336.4,37.4v19h-4v-19H336.4 M337.4,36.4h-6v21h6V36.4L337.4,36.4z"/>
</g>
<rect x="306.9" y="16.9" class="st6" width="36" height="10"/>
<rect x="40.5" y="21.5" class="st4" width="16" height="63"/>
<rect x="45.5" y="29.5" class="st3" width="6" height="16"/>
<rect x="67.5" y="24.5" class="st3" width="43" height="32"/>
<g>
	<rect x="123.9" y="30.9" class="st5" width="34" height="59"/>
	<path d="M157.4,31.4v58h-33v-58H157.4 M158.4,30.4h-35v60h35V30.4L158.4,30.4z"/>
</g>
<g>
	<path d="M140.9,90.2c0.2,0,0.3,0.1,0.5,0.2l0-59.9h-0.8l0,59.9C140.6,90.2,140.8,90.2,140.9,90.2z"/>
	<path d="M140.6,30.5l0,59.9c0.1-0.1,0.2-0.1,0.4-0.1c0.2,0,0.3,0.1,0.5,0.2l0-59.9H140.6L140.6,30.5z"/>
</g>
<g>
	<rect x="129.9" y="36.9" width="5" height="20.2"/>
	<path d="M134.4,37.4v19.2h-4V37.4H134.4 M135.4,36.4h-6v21.2h6V36.4L135.4,36.4z"/>
</g>
<g>
	<rect x="147.9" y="36.9" width="5" height="20"/>
	<path d="M152.4,37.4v19h-4v-19H152.4 M153.4,36.4h-6v21h6V36.4L153.4,36.4z"/>
</g>
<rect x="122.9" y="16.9" class="st6" width="36" height="10"/>
<g>
	<rect x="217.9" y="30.9" class="st5" width="34" height="59"/>
	<path d="M251.4,31.4v58h-33v-58H251.4 M252.4,30.4h-35v60h35V30.4L252.4,30.4z"/>
</g>
<g>
	<path d="M234.9,90.2c0.2,0,0.3,0.1,0.5,0.2l0-59.9h-0.8l0,59.9C234.6,90.2,234.8,90.2,234.9,90.2z"/>
	<path d="M234.6,30.5l0,59.9c0.1-0.1,0.2-0.1,0.4-0.1c0.2,0,0.3,0.1,0.5,0.2l0-59.9H234.6L234.6,30.5z"/>
</g>
<g>
	<rect x="223.9" y="36.9" width="5" height="20.2"/>
	<path d="M228.4,37.4v19.2h-4V37.4H228.4 M229.4,36.4h-6v21.2h6V36.4L229.4,36.4z"/>
</g>
<g>
	<rect x="241.9" y="36.9" width="5" height="20"/>
	<path d="M246.4,37.4v19h-4v-19H246.4 M247.4,36.4h-6v21h6V36.4L247.4,36.4z"/>
</g>
<rect x="216.9" y="16.9" class="st6" width="36" height="10"/>
<rect x="167.5" y="24.5" class="st3" width="43" height="32"/>
<rect x="260.5" y="24.5" class="st3" width="43" height="32"/>
<rect x="349.5" y="24.5" class="st3" width="43" height="32"/>
<g>
	<rect x="459.7" y="30" class="st5" width="34" height="59"/>
	<path d="M493.2,30.5v58h-33v-58L493.2,30.5 M494.2,29.5h-35v60h35V29.5L494.2,29.5z"/>
</g>
<g>
	<path d="M476.7,89.3c0.2,0,0.3,0.1,0.5,0.2l0-59.9h-0.8l0,59.9C476.4,89.3,476.5,89.3,476.7,89.3z"/>
	<path d="M476.3,29.6l0,59.9c0.1-0.1,0.2-0.1,0.4-0.1c0.2,0,0.3,0.1,0.5,0.2l0-59.9L476.3,29.6L476.3,29.6z"/>
</g>
<g>
	<rect x="465.7" y="36" width="5" height="20.2"/>
	<path d="M470.2,36.5v19.2h-4V36.5H470.2 M471.2,35.5h-6v21.2h6V35.5L471.2,35.5z"/>
</g>
<g>
	<rect x="483.7" y="36" width="5" height="20"/>
	<path d="M488.2,36.5v19h-4v-19H488.2 M489.2,35.5h-6v21h6V35.5L489.2,35.5z"/>
</g>
<rect x="458.7" y="16" class="st6" width="36" height="10"/>
<rect x="1120.5" y="24.5" class="st3" width="43" height="32"/>
<rect x="499.5" y="24.5" class="st3" width="43" height="32"/>
<g>
	<rect x="549.6" y="30.9" class="st5" width="34" height="59"/>
	<path d="M583.1,31.4v58h-33v-58L583.1,31.4 M584.1,30.4h-35v60h35V30.4L584.1,30.4z"/>
</g>
<g>
	<path d="M566.6,90.2c0.2,0,0.3,0.1,0.5,0.2l0-59.9h-0.8l0,59.9C566.4,90.3,566.5,90.2,566.6,90.2z"/>
	<path d="M566.3,30.5l0,59.9c0.1-0.1,0.2-0.1,0.4-0.1c0.2,0,0.3,0.1,0.5,0.2l0-59.9L566.3,30.5L566.3,30.5z"/>
</g>
<g>
	<rect x="555.7" y="36.9" width="5" height="20.2"/>
	<path d="M560.1,37.4v19.2h-4V37.4H560.1 M561.1,36.4h-6v21.2h6V36.4L561.1,36.4z"/>
</g>
<g>
	<rect x="573.6" y="36.9" width="5" height="20"/>
	<path d="M578.1,37.4v19h-4v-19H578.1 M579.1,36.4h-6v21h6V36.4L579.1,36.4z"/>
</g>
<rect x="548.6" y="16.9" class="st6" width="36" height="10"/>
<g>
	<rect x="641.1" y="30.9" class="st5" width="34" height="59"/>
	<path d="M674.6,31.4v58h-33v-58L674.6,31.4 M675.6,30.4h-35v60h35V30.4L675.6,30.4z"/>
</g>
<g>
	<path d="M658.1,90.2c0.2,0,0.3,0.1,0.5,0.2l0-59.9h-0.8l0,59.9C657.9,90.3,658,90.2,658.1,90.2z"/>
	<path d="M657.8,30.5l0,59.9c0.1-0.1,0.2-0.1,0.4-0.1c0.2,0,0.3,0.1,0.5,0.2l0-59.9L657.8,30.5L657.8,30.5z"/>
</g>
<g>
	<rect x="647.2" y="36.9" width="5" height="20.2"/>
	<path d="M651.6,37.4v19.2h-4V37.4H651.6 M652.6,36.4h-6v21.2h6V36.4L652.6,36.4z"/>
</g>
<g>
	<rect x="665.1" y="36.9" width="5" height="20"/>
	<path d="M669.6,37.4v19h-4v-19H669.6 M670.6,36.4h-6v21h6V36.4L670.6,36.4z"/>
</g>
<rect x="640.1" y="16.9" class="st6" width="36" height="10"/>
<rect x="591.5" y="24.5" class="st3" width="43" height="32"/>
<g>
	<rect x="732.1" y="27.9" class="st5" width="34" height="59"/>
	<path d="M765.6,28.4v58h-33v-58L765.6,28.4 M766.6,27.4h-35v60h35V27.4L766.6,27.4z"/>
</g>
<g>
	<path d="M749.1,87.2c0.2,0,0.3,0.1,0.5,0.2l0-59.9h-0.8l0,59.9C748.9,87.3,749,87.2,749.1,87.2z"/>
	<path d="M748.8,27.5l0,59.9c0.1-0.1,0.2-0.1,0.4-0.1c0.2,0,0.3,0.1,0.5,0.2l0-59.9L748.8,27.5L748.8,27.5z"/>
</g>
<g>
	<rect x="738.2" y="33.9" width="5" height="20.2"/>
	<path d="M742.6,34.4v19.2h-4V34.4H742.6 M743.6,33.4h-6v21.2h6V33.4L743.6,33.4z"/>
</g>
<g>
	<rect x="756.1" y="33.9" width="5" height="20"/>
	<path d="M760.6,34.4v19h-4v-19H760.6 M761.6,33.4h-6v21h6V33.4L761.6,33.4z"/>
</g>
<rect x="731.1" y="13.9" class="st6" width="36" height="10"/>
<rect x="682.1" y="23.9" class="st3" width="43" height="32"/>
<rect x="774.5" y="24.5" class="st3" width="43" height="32"/>
<g>
	<rect x="895.7" y="28.4" class="st5" width="34" height="59"/>
	<path d="M929.2,28.9v58h-33v-58L929.2,28.9 M930.2,27.9h-35v60h35V27.9L930.2,27.9z"/>
</g>
<g>
	<path d="M912.7,87.7c0.2,0,0.3,0.1,0.5,0.2l0-59.9h-0.8l0,59.9C912.5,87.8,912.6,87.7,912.7,87.7z"/>
	<path d="M912.4,28l0,59.9c0.1-0.1,0.2-0.1,0.4-0.1c0.2,0,0.3,0.1,0.5,0.2l0-59.9L912.4,28L912.4,28z"/>
</g>
<g>
	<rect x="901.8" y="34.4" width="5" height="20.2"/>
	<path d="M906.2,34.9v19.2h-4V34.9H906.2 M907.2,33.9h-6v21.2h6V33.9L907.2,33.9z"/>
</g>
<g>
	<rect x="919.7" y="34.4" width="5" height="20"/>
	<path d="M924.2,34.9v19h-4v-19H924.2 M925.2,33.9h-6v21h6V33.9L925.2,33.9z"/>
</g>
<rect x="894.7" y="14.4" class="st6" width="36" height="10"/>
<rect x="845.7" y="24.4" class="st3" width="43" height="32"/>
<g>
	<rect x="988.7" y="28.4" class="st5" width="34" height="59"/>
	<path d="M1022.2,28.9v58h-33v-58L1022.2,28.9 M1023.2,27.9h-35v60h35V27.9L1023.2,27.9z"/>
</g>
<g>
	<path d="M1005.7,87.7c0.2,0,0.3,0.1,0.5,0.2l0-59.9h-0.8l0,59.9C1005.5,87.8,1005.6,87.7,1005.7,87.7z"/>
	<path d="M1005.4,28l0,59.9c0.1-0.1,0.2-0.1,0.4-0.1c0.2,0,0.3,0.1,0.5,0.2l0-59.9L1005.4,28L1005.4,28z"/>
</g>
<g>
	<rect x="994.8" y="34.4" width="5" height="20.2"/>
	<path d="M999.2,34.9v19.2h-4V34.9H999.2 M1000.2,33.9h-6v21.2h6V33.9L1000.2,33.9z"/>
</g>
<g>
	<rect x="1012.7" y="34.4" width="5" height="20"/>
	<path d="M1017.2,34.9v19h-4v-19H1017.2 M1018.2,33.9h-6v21h6V33.9L1018.2,33.9z"/>
</g>
<rect x="987.7" y="14.4" class="st6" width="36" height="10"/>
<rect x="934.5" y="24.5" class="st3" width="43" height="32"/>
<g>
	<rect x="1078.7" y="28.4" class="st5" width="34" height="59"/>
	<path d="M1112.2,28.9v58h-33v-58L1112.2,28.9 M1113.2,27.9h-35v60h35V27.9L1113.2,27.9z"/>
</g>
<g>
	<path d="M1095.7,87.7c0.2,0,0.3,0.1,0.5,0.2l0-59.9h-0.8l0,59.9C1095.5,87.8,1095.6,87.7,1095.7,87.7z"/>
	<path d="M1095.4,28l0,59.9c0.1-0.1,0.2-0.1,0.4-0.1c0.2,0,0.3,0.1,0.5,0.2l0-59.9L1095.4,28L1095.4,28z"/>
</g>
<g>
	<rect x="1084.8" y="34.4" width="5" height="20.2"/>
	<path d="M1089.2,34.9v19.2h-4V34.9H1089.2 M1090.2,33.9h-6v21.2h6V33.9L1090.2,33.9z"/>
</g>
<g>
	<rect x="1102.7" y="34.4" width="5" height="20"/>
	<path d="M1107.2,34.9v19h-4v-19H1107.2 M1108.2,33.9h-6v21h6V33.9L1108.2,33.9z"/>
</g>
<rect x="1077.7" y="14.4" class="st6" width="36" height="10"/>
<rect x="1028.7" y="24.4" class="st3" width="43" height="32"/>
<rect x="167.5" y="1" class="st7" width="85.4" height="6.5"/>
<rect x="986" y="1" class="st7" width="85.4" height="6.5"/>
<rect x="566.3" y="0.9" class="st7" width="85.4" height="6.5"/>
<rect x="867.2" y="1" class="st7" width="6.5" height="6.5"/>
<rect x="762.4" y="0.9" class="st7" width="6.5" height="6.5"/>
<rect x="452.5" y="0.9" class="st7" width="6.5" height="6.5"/>
<rect x="338.2" y="1" class="st7" width="6.5" height="6.5"/>
</svg>
