<?xml version="1.0" encoding="utf-8"?>
<!-- Generator: Adobe Illustrator 24.2.1, SVG Export Plug-In . SVG Version: 6.00 Build 0)  -->
<svg version="1.1" id="Layer_1" xmlns="http://www.w3.org/2000/svg" xmlns:xlink="http://www.w3.org/1999/xlink" x="0px" y="0px"
	 viewBox="0 0 1359.34 126.21" style="enable-background:new 0 0 1359.34 126.21;" xml:space="preserve">
<style type="text/css">
	.st0{fill:#400777;stroke:#000000;stroke-miterlimit:10;}
	.st1{fill:#FFFFFF;stroke:#000000;stroke-miterlimit:10;}
	.st2{fill:#FF6E0B;stroke:#000000;stroke-miterlimit:10;}
	.st3{fill:none;}
	.st4{fill:#F7931E;}
	.st5{fill:#EF7E0C;}
	.st6{stroke:#000000;stroke-miterlimit:10;}
	.st7{fill:#110800;stroke:#000000;stroke-miterlimit:10;}
</style>
<path class="st0" d="M1289.58,114.71h-1193c-2.67,0-5.33,0-8,0c-0.32,0-18,0-18,0c-29.86,0-29.3,0.05-30,0
	c-8.3-0.57-20.34-2.69-35-10c-2.02-1.2-3.26-2.59-4-4c-4.92-9.33,7.26-27.5,29-46c10.22-9.61,19.16-17.32,26-23
	c13.19-10.96,17.86-13.8,23-16c10.97-4.69,20.67-4.92,26-5c20.07-0.29,67.2,0.06,130,2c144.1,0.51,260.04,1.33,340,2
	c109.66,0.91,195.78,1.9,327,2c78.35,0.06,75.9-0.27,123,0c0,0,168.73,0.98,215,0c0.12,0,0.79-0.02,1.69-0.03
	c2.09-0.02,5.72-0.01,10.17,0.27c5.08,0.32,9.64,0.91,16.13,1.75c0.69,0.09,10.46,1.4,22,5c6.86,2.14,10.11,3.77,13,6
	c0.67,0.52,0.66,0.56,6,5c5.59,4.65,5.36,4.41,6,5c3.45,3.21,3.75,4.4,8,9c3.02,3.27,3.07,2.89,6,6c4.46,4.72,4.27,5.52,9,11
	c4.79,5.55,5.76,5.63,10,11c2.11,2.67,3.71,4.99,5,7c2.18,3.41,3.27,5.11,4,7c1.96,5.08,1.85,12.78-1.99,17.1
	c-2.51,2.83-5.29,2.33-18.01,3.9c-14.82,1.83-22.36,2.81-29,3C1303.06,114.87,1296.68,114.91,1289.58,114.71z"/>
<path class="st1" d="M132.58,67.71"/>
<path class="st1" d="M1272.58,114.71h-1163c-3.33,0-6.67,0-10,0c-14.33,0-28.67,0-43,0c-5.37,0.76-13.42,1.36-23,0
	c-6.83-0.97-26.04-3.68-28-10c-1.93-6.23,11.56-20.31,87-56c2.04-0.69,4.96-1.61,8.52-2.47c6.07-1.47,10.76-2.01,15.48-2.53
	c7.36-0.81,13.23-0.96,15-1c19.51-0.39,418.52,0.73,503,0c0.09,0-0.03,0,0,0c38.28-1.07,74,1,74,1c17.57,0,29.61,0.63,118,0
	c0,0,105.33-1,395-1c3.07,0,6.03,0.01,12,0c10.9-0.03,12.35-0.4,17,0c2.53,0.22,4.42,0.38,7,1c1.61,0.38,4.48,1.18,12,5
	c1.91,0.97,2.57,1.35,11,6c8.03,4.43,8.07,4.44,9,5c5.1,3.06,5.44,3.71,11,7c1.19,0.7,3.13,1.8,7,4c2.63,1.49,4.09,2.33,7,4
	c3.35,1.92,3.99,2.3,5,3c1.24,0.86,1.9,1.4,4.22,3.06c0,0,1.26,0.9,2.78,1.94c11.03,7.59,24,13,24,13c4.9,2.04,7.37,2.73,8,5
	c0.94,3.4-2.4,6.44-3,7c-1.62,1.51-3.33,2.11-7,3c-5.38,1.31-8.92,1.77-17,3c-3.9,0.59-5.44,0.84-8,1c-4.09,0.25-7.13,0.05-8,0
	C1311.38,114.46,1300.48,114.32,1272.58,114.71z"/>
<path class="st1" d="M56.58,31.71c-4.02,3.24-7.35,6.16-14,12c-3.55,3.12-6.14,5.43-9,8c-6.18,5.54-9.27,8.3-11,10
	c-7.62,7.47-13.24,12.98-12.12,14.9c2.43,4.17,35.86-10.22,47.58-17.89c13.88-9.09,14.51-9.5,14.51-9.5
	c2.06-1.37,4.53-3.02,8.08-5.26c1.14-0.72,2.13-1.34,2.97-1.86c2.03-1.26,3.55-2.19,3.66-2.26c1.63-1,21.28-13.62,19.33-19.12
	c-0.92-2.59-6.31-2.77-13-3c-5.39-0.18-14.93-0.39-25,5C66.15,24.01,62.96,26.57,56.58,31.71z"/>
<path class="st2" d="M29.58,28.71"/>
<path class="st3" d="M70.79,21.23c9.1-2.38,18.53-3.51,27.94-3.35c3.18,0.05,7.27,1.08,7.55,4.24c0.19,2.17-1.67,3.92-3.37,5.28
	c-15.04,12-31.22,22.56-48.04,31.91c-3.83,2.13-7.7,4.2-11.61,6.2c-9.72,4.99-19.8,9.64-30.57,11.48c-1.12,0.19-2.85-0.5-2.22-1.44"
	/>
<path class="st4" d="M10.08,76.21c-1.1,1.3-1.14,1.79-1,2c0.23,0.35,1.04,0.08,3,0c1.02-0.04,1.11,0.02,2,0c2.56-0.05,4.65-0.62,6-1
	c0.64-0.18,0.61-0.19,3-1c4.59-1.55,4.71-1.5,6-2c2.45-0.94,2.58-1.33,6-3c2.41-1.18,3.12-1.36,7-3c3.52-1.48,6.04-2.64,9-4
	c4.59-2.11,6.97-3.35,11.17-5.42c11.03-5.44,11.4-5.16,16.06-7.61c3.75-1.98,10.91-5.81,17.77-11.97
	c0.71-0.64,17.65-16.03,14.23-21.9c-1.9-3.27-9.34-2.28-18.23-1.1c-9.91,1.32-17.79,3.93-23,6c4.29-0.8,8.3-1.45,12-2
	c5.91-0.87,9.62-1.25,14,0c2.34,0.67,3.52,1.01,4,2c2.32,4.76-13.06,16.52-15,18c-1.31,1-3.36,2.51-16,10
	c-10.04,5.95-15.18,8.99-21,12c-3.98,2.06-8.32,4.04-17,8c-4.27,1.95-8.31,3.74-14,5C13.62,75.75,11.54,76.04,10.08,76.21z"/>
<path d="M64.08,26.21c1.89-0.7,3.62-0.81,7-1c3.08-0.17,4.5-0.04,10,0c2.16,0.01,3.91,0.01,5,0c0.07,1.19,0.01,3.1-1,5
	c-0.4,0.76-0.79,1.21-4,4c-4.02,3.5-5.1,4.26-6.64,4.94c-0.24,0.11-1.26,0.55-2.69,0.92c-6.05,1.57-27.26,3.88-29.67,4.14
	c1.33-1.42,3-3.13,5-5c2.12-1.99,5.11-4.35,11-9C61.48,27.52,62.4,26.83,64.08,26.21z"/>
<path class="st5" d="M63.08,69.21c3.24-1.36,12.83-4.9,32-12c3.79-1.4,8.52-3.14,15-5c3.44-0.99,7.55-2.18,12-3
	c9.19-1.7,16.42-1.19,20-1c8.71,0.47,1.07-0.58,41-1c22.82-0.24,40.49-0.06,46,0c78.59,0.85,80.07,0.9,91,1
	c23.51,0.21,25.2,0.05,100,0c33.23-0.02,60.33-0.01,78,0c0-1.67,0-3.33,0-5c-192.32-2.26-332.55-2.89-350-2c-11.57,0.59-25,2-25,2
	c-10.28,1.08-16.15,1.51-22,3c-9.58,2.45-14.28,5.23-33,15c-28.41,14.82-32.09,15.98-42,23c-11.2,7.93-19.34,15.55-19,16
	c0.42,0.55,13.22-10.28,34-21C49.22,75.01,55.88,72.22,63.08,69.21z"/>
<path class="st1" d="M161.58,112.71L161.58,112.71c-3.85,0-7-3.15-7-7v-49c0-3.85,3.15-7,7-7h0c3.85,0,7,3.15,7,7v49
	C168.58,109.56,165.43,112.71,161.58,112.71z"/>
<path class="st6" d="M161.08,80.71L161.08,80.71c-1.93,0-3.5-1.58-3.5-3.5v-15c0-1.92,1.57-3.5,3.5-3.5l0,0c1.93,0,3.5,1.57,3.5,3.5
	v15C164.58,79.13,163.01,80.71,161.08,80.71z"/>
<path class="st1" d="M348.58,111.71L348.58,111.71c-3.85,0-7-3.15-7-7v-49c0-3.85,3.15-7,7-7h0c3.85,0,7,3.15,7,7v49
	C355.58,108.56,352.43,111.71,348.58,111.71z"/>
<path class="st6" d="M348.08,78.71L348.08,78.71c-1.93,0-3.5-1.58-3.5-3.5v-15c0-1.92,1.58-3.5,3.5-3.5h0c1.92,0,3.5,1.57,3.5,3.5
	v15C351.58,77.13,350.01,78.71,348.08,78.71z"/>
<rect x="479.58" y="14.21" width="9.58" height="101"/>
<rect x="489.08" y="43.21" class="st5" width="335" height="5"/>
<rect x="824.08" y="43.21" class="st5" width="419" height="5"/>
<path class="st1" d="M1316.62,41.52c3.65,3.65,6.64,6.91,12.63,13.44c3.2,3.49,5.51,6.06,8.09,8.92c5.55,6.17,8.32,9.25,9.86,11.13
	c6.77,8.25,11.76,14.33,10.45,16.12c-2.86,3.89-34.55-14.02-45.38-22.91c-12.82-10.53-13.4-11.01-13.4-11.01
	c-1.9-1.58-4.18-3.49-7.46-6.09c-1.06-0.84-1.97-1.56-2.76-2.17c-1.88-1.47-3.29-2.56-3.39-2.64c-1.51-1.17-19.69-15.83-17.16-21.09
	c1.19-2.47,6.57-2.08,13.25-1.58c5.38,0.4,14.89,1.22,24.32,7.66C1307.94,32.83,1310.83,35.73,1316.62,41.52z"/>
<path d="M1310.01,34.6c-1.8-0.9-3.51-1.2-6.85-1.75c-3.04-0.5-4.47-0.52-9.94-1.08c-2.15-0.22-3.88-0.41-4.97-0.54
	c-0.2,1.18-0.34,3.08,0.46,5.08c0.32,0.8,0.66,1.29,3.55,4.41c3.62,3.91,4.61,4.78,6.07,5.63c0.23,0.13,1.19,0.68,2.58,1.21
	c5.84,2.21,26.69,6.79,29.05,7.31c-1.17-1.56-2.65-3.44-4.43-5.51c-1.9-2.2-4.61-4.88-9.97-10.13
	C1312.45,36.19,1311.62,35.41,1310.01,34.6z"/>
<path class="st4" d="M1356.61,89.26c0.95,1.41,0.94,1.9,0.78,2.1c-0.27,0.33-1.04-0.03-2.98-0.32c-1.01-0.15-1.11-0.1-1.99-0.22
	c-2.54-0.33-4.55-1.12-5.86-1.64c-0.62-0.25-0.59-0.26-2.87-1.32c-4.39-2.04-4.52-2-5.75-2.63c-2.34-1.2-2.43-1.6-5.64-3.63
	c-2.27-1.43-2.96-1.69-6.64-3.74c-3.34-1.85-5.72-3.28-8.52-4.95c-4.34-2.59-6.57-4.08-10.53-6.59c-10.38-6.6-10.78-6.35-15.14-9.3
	c-3.52-2.37-10.22-6.95-16.38-13.81c-0.64-0.71-15.82-17.84-11.79-23.31c2.24-3.04,9.54-1.26,18.25,0.87
	c9.71,2.38,17.26,5.82,22.22,8.44c-4.18-1.25-8.09-2.34-11.71-3.28c-5.78-1.5-9.43-2.28-13.92-1.51c-2.4,0.42-3.6,0.62-4.19,1.56
	c-2.82,4.48,11.21,17.83,12.97,19.51c1.19,1.13,3.07,2.86,14.83,11.67c9.34,7,14.13,10.57,19.59,14.19
	c3.73,2.48,7.84,4.91,16.04,9.78c4.04,2.4,7.86,4.62,13.38,6.48C1353.15,88.43,1355.19,88.94,1356.61,89.26z"/>
<path class="st0" d="M1262.58,48.71"/>
<path class="st1" d="M1295.58,19.71"/>
<path class="st5" d="M1255.08,49.21c6.45,2.03,11.69,4.67,16,7c8.28,4.48,8.18,5.13,14,8c5.17,2.55,8.14,3.47,12,5
	c14.63,5.8,17.33,10.61,36,20c4.78,2.41,7.98,3.8,13,6c4.82,2.11,12.71,5.58,13,5c0.17-0.34-2.35-1.95-4-3
	c-6.19-3.93-10.81-5.72-15-8c-12.83-7-11.78-6.24-14.76-8.05c-1.33-0.81-5.72-3.49-11.14-7.03c-2.69-1.76-3.84-2.55-6.09-3.92
	c-4.33-2.64-7.68-4.32-9-5c-2.29-1.17-10.19-5.78-26-15c-1.86-1.09-7.61-4.44-14-6c-3.02-0.74-5.81-0.98-6-1
	c-2.97-0.25-3.55,0.06-7,0c-6.03-0.1-8.38-1.09-9,0c-0.53,0.94,0.51,2.92,2,4c2.55,1.83,5.1,0.08,10.63,0.72
	C1251.35,48.11,1252.61,48.43,1255.08,49.21z"/>
<path d="M1308.08,147.21"/>
<path class="st1" d="M514.58,111.71L514.58,111.71c-3.85,0-7-3.15-7-7v-49c0-3.85,3.15-7,7-7l0,0c3.85,0,7,3.15,7,7v49
	C521.58,108.56,518.43,111.71,514.58,111.71z"/>
<path class="st6" d="M514.08,79.71L514.08,79.71c-1.93,0-3.5-1.58-3.5-3.5v-15c0-1.92,1.57-3.5,3.5-3.5l0,0c1.92,0,3.5,1.57,3.5,3.5
	v15C517.58,78.13,516.01,79.71,514.08,79.71z"/>
<path class="st1" d="M868.58,110.71L868.58,110.71c-3.85,0-7-3.15-7-7v-49c0-3.85,3.15-7,7-7l0,0c3.85,0,7,3.15,7,7v49
	C875.58,107.56,872.43,110.71,868.58,110.71z"/>
<path class="st6" d="M868.08,78.71L868.08,78.71c-1.93,0-3.5-1.58-3.5-3.5v-15c0-1.92,1.57-3.5,3.5-3.5l0,0c1.92,0,3.5,1.57,3.5,3.5
	v15C871.58,77.13,870.01,78.71,868.08,78.71z"/>
<path class="st1" d="M1012.58,112.71L1012.58,112.71c-3.85,0-7-3.15-7-7v-49c0-3.85,3.15-7,7-7l0,0c3.85,0,7,3.15,7,7v49
	C1019.58,109.56,1016.43,112.71,1012.58,112.71z"/>
<path class="st6" d="M1012.08,80.71L1012.08,80.71c-1.93,0-3.5-1.58-3.5-3.5v-15c0-1.92,1.57-3.5,3.5-3.5l0,0
	c1.92,0,3.5,1.57,3.5,3.5v15C1015.58,79.13,1014.01,80.71,1012.08,80.71z"/>
<path class="st1" d="M1231.58,110.71L1231.58,110.71c-3.85,0-7-3.15-7-7v-49c0-3.85,3.15-7,7-7l0,0c3.85,0,7,3.15,7,7v49
	C1238.58,107.56,1235.43,110.71,1231.58,110.71z"/>
<path class="st6" d="M1231.08,78.71L1231.08,78.71c-1.92,0-3.5-1.58-3.5-3.5v-15c0-1.92,1.58-3.5,3.5-3.5l0,0
	c1.93,0,3.5,1.57,3.5,3.5v15C1234.58,77.13,1233.01,78.71,1231.08,78.71z"/>
<rect x="181.58" y="59.71" class="st7" width="22" height="22"/>
<rect x="213.58" y="59.71" class="st7" width="22" height="22"/>
<rect x="245.58" y="58.71" class="st7" width="22" height="22"/>
<rect x="277.58" y="58.71" class="st7" width="22" height="22"/>
<rect x="306.58" y="58.71" class="st7" width="22" height="22"/>
<rect x="374.58" y="54.71" class="st7" width="46" height="29"/>
<rect x="535.58" y="59.71" class="st7" width="22" height="22"/>
<rect x="569.58" y="59.71" class="st7" width="22" height="22"/>
<rect x="607.58" y="59.71" class="st7" width="22" height="22"/>
<rect x="646.58" y="59.71" class="st7" width="22" height="22"/>
<rect x="680.58" y="59.71" class="st7" width="22" height="22"/>
<rect x="718.58" y="59.71" class="st7" width="22" height="22"/>
<rect x="755.58" y="59.71" class="st7" width="22" height="22"/>
<rect x="789.58" y="59.71" class="st7" width="22" height="22"/>
<rect x="827.58" y="59.71" class="st7" width="22" height="22"/>
<rect x="1038.58" y="58.71" class="st7" width="22" height="22"/>
<rect x="940.58" y="57.71" class="st7" width="46" height="29"/>
<rect x="909.82" y="17.21" width="9.58" height="98.08"/>
<rect x="1073.58" y="58.71" class="st7" width="22" height="22"/>
<rect x="1108.58" y="58.71" class="st7" width="22" height="22"/>
<rect x="1145.58" y="58.71" class="st7" width="22" height="22"/>
<rect x="1182.58" y="58.71" class="st7" width="22" height="22"/>
<rect x="41.58" y="115.71" class="st7" width="1272" height="11"/>
<path class="st7" d="M958.58,10.71"/>
<path class="st0" d="M974.58,16.71h-55V4.89c4.12-0.74,10.45-1.38,18-0.19c7.51,1.19,13.31,3.73,17,5.7
	C961.25,12.51,967.92,14.61,974.58,16.71z"/>
<path class="st0" d="M854.06,16.86l54.99-1l-0.21-11.81c-4.14-0.66-10.47-1.19-18,0.14c-7.49,1.32-13.24,3.97-16.89,6.01
	C867.31,12.41,860.68,14.64,854.06,16.86z"/>
<path class="st0" d="M544.58,13.71h-55V1.89c4.12-0.74,10.45-1.38,18-0.19c7.51,1.19,13.31,3.73,17,5.7
	C531.25,9.51,537.92,11.61,544.58,13.71z"/>
<path class="st0" d="M424.43,13.99l54.99-1l-0.21-11.81c-4.14-0.66-10.47-1.19-18,0.14c-7.49,1.32-13.24,3.97-16.89,6.01
	C437.69,9.55,431.06,11.77,424.43,13.99z"/>
</svg>
