<?xml version="1.0" encoding="utf-8"?>
<!-- Generator: Adobe Illustrator 24.2.1, SVG Export Plug-In . SVG Version: 6.00 Build 0)  -->
<svg version="1.1" id="Layer_1" xmlns="http://www.w3.org/2000/svg" xmlns:xlink="http://www.w3.org/1999/xlink" x="0px" y="0px"
	 viewBox="0 0 1265.73 118.79" style="enable-background:new 0 0 1265.73 118.79;" xml:space="preserve">
<style type="text/css">
	.st0{fill:#999999;stroke:#000000;stroke-miterlimit:10;}
	.st1{fill:none;}
	.st2{stroke:#000000;stroke-miterlimit:10;}
	.st3{fill:#F2F2F2;stroke:#000000;stroke-miterlimit:10;}
	.st4{fill:#3FA9F5;stroke:#000000;stroke-miterlimit:10;}
	.st5{fill:#FFFFFF;stroke:#000000;stroke-miterlimit:10;}
	.st6{fill:#808080;stroke:#000000;stroke-miterlimit:10;}
</style>
<path class="st0" d="M1247.01,1.23c-409.5,0-819,0-1228.5,0c0,34.17,0,68.33,0,102.5h1228.5V1.23z"/>
<g>
	<path class="st1" d="M231.09,111.11c31.61-3.67,63.05-8.84,94.18-15.5"/>
</g>
<g>
	<path class="st1" d="M276.67,96.68c25.71-0.39,51.4-2.88,76.7-7.44"/>
</g>
<g>
	<rect x="36" y="104.57" class="st2" width="1198" height="13"/>
	<g>
		<path class="st2" d="M1233.51,105.07v12H36.5v-12H1233.51 M1234.51,104.07h-1199v14h1199V104.07L1234.51,104.07z"/>
	</g>
</g>
<path class="st3" d="M30.28,111.48c-2.86,1.31-6.38,2.73-10.58,4.05c-3.84,1.21-7.43,2.07-10.58,2.7c-0.89-1.36-2.12-3.72-2.12-6.75
	c0-1.47,0.29-3.95,2.12-6.75c8.46,0,16.92,0,25.38,0C33.1,106.98,31.69,109.23,30.28,111.48z"/>
<path class="st3" d="M1238.75,110.48c2.86,1.31,6.38,2.73,10.58,4.05c3.84,1.21,7.43,2.07,10.58,2.7c0.89-1.36,2.12-3.72,2.12-6.75
	c0-1.47-0.29-3.95-2.12-6.75c-8.46,0-16.92,0-25.38,0C1235.92,105.98,1237.33,108.23,1238.75,110.48z"/>
<g>
	<rect x="19.4" y="6.15" class="st4" width="1227.6" height="6.76"/>
	<g>
		<path class="st4" d="M1246.49,6.41v6.24H19.91V6.41H1246.49 M1247.51,5.89H18.89v7.28h1228.62V5.89L1247.51,5.89z"/>
	</g>
</g>
<path class="st5" d="M2.01,101.04c0.82,1.2,1.78,1.85,2,2c2.03,1.35,3.92,1.06,10,1c1.65-0.02,3.02-0.01,4,0c0-7.33,0-14.67,0-22
	c0-15.67,0-31.33,0-47c0-5.67,0-11.33,0-17c0-1.33,0.01-2.67,0-4c-0.05-5.32-0.06-5.63,0-6c0.34-2.26,4.08-4.99,19-7
	c-7.37-0.52-13.5-0.33-18,0c-6.03,0.44-8.74,1.09-11,3c-3.3,2.79-4.07,6.91-4.43,9c-4.01,23.68-2.53,66.66-3,75
	c-0.09,1.61-0.12,3.4,0,7C0.67,97.5,0.82,99.3,2.01,101.04z"/>
<path class="st5" d="M1263.79,100.43c-0.81,1.19-1.76,1.84-1.99,1.99c-2.02,1.35-3.91,1.07-9.99,1.06c-1.65,0-3.02,0.01-4,0.03
	c-0.05-7.26-0.1-14.51-0.14-21.77c-0.1-15.5-0.2-31.01-0.31-46.51c-0.04-5.61-0.07-11.22-0.11-16.82c-0.01-1.32-0.03-2.64-0.03-3.96
	c0.02-5.27,0.02-5.57-0.04-5.94c-0.36-2.24-4.11-4.91-19.05-6.8c7.37-0.57,13.5-0.41,18-0.12c6.04,0.4,8.74,1.02,11.02,2.9
	c3.32,2.74,4.12,6.82,4.48,8.88c4.17,23.41,2.97,65.96,3.49,74.2c0.1,1.59,0.15,3.37,0.05,6.93
	C1265.11,96.92,1264.96,98.7,1263.79,100.43z"/>
<g>
	<rect x="2.03" y="67.91" class="st4" width="1261.95" height="13"/>
	<g>
		<path class="st4" d="M1263.46,68.41v12H2.56v-12H1263.46 M1264.51,67.41H1.51v14h1263V67.41L1264.51,67.41z"/>
	</g>
</g>
<rect x="835.09" y="1.46" class="st2" width="7" height="102.5"/>
<rect x="401.41" y="0.5" class="st2" width="7" height="103.5"/>
<rect x="1228.01" y="28.73" class="st2" width="8" height="16"/>
<rect x="1198.01" y="24.23" class="st6" width="14.94" height="74"/>
<rect x="1202.68" y="32.45" class="st2" width="5.6" height="18.79"/>
<rect x="1198.01" y="67.99" class="st4" width="14.94" height="13.45"/>
<rect x="29.14" y="28.73" class="st2" width="8" height="16"/>
<rect x="54.61" y="22.81" class="st6" width="14.94" height="74"/>
<rect x="59.28" y="31.03" class="st2" width="5.6" height="18.79"/>
<rect x="54.61" y="66.57" class="st4" width="14.94" height="13.45"/>
<rect x="1136.01" y="23.73" class="st2" width="43" height="32"/>
<g>
	<rect x="1088.19" y="17.79" class="st6" width="34" height="76.32"/>
	<path class="st6" d="M1121.69,18.44v75.03h-33V18.44L1121.69,18.44 M1122.69,17.14h-35v77.62h35V17.14L1122.69,17.14z"/>
</g>
<g>
	<path d="M1105.19,93.53c0.17,0,0.32,0.08,0.46,0.23l0.04-75.53h-0.84l-0.04,75.46C1104.92,93.58,1105.05,93.53,1105.19,93.53z"/>
	<path d="M1104.85,18.23l-0.04,75.46c0.12-0.1,0.24-0.16,0.38-0.16c0.17,0,0.32,0.08,0.46,0.23l0.04-75.53L1104.85,18.23
		L1104.85,18.23z"/>
</g>
<g>
	<rect x="1094.22" y="26.64" width="4.97" height="20.2"/>
	<path d="M1098.69,27.14v19.2h-3.97v-19.2H1098.69 M1099.69,26.14h-5.97v21.2h5.97V26.14L1099.69,26.14z"/>
</g>
<g>
	<rect x="1111.19" y="26.64" width="5" height="20"/>
	<path d="M1115.69,27.14v19h-4v-19H1115.69 M1116.69,26.14h-6v21h6V26.14L1116.69,26.14z"/>
</g>
<rect x="1088.23" y="67.26" class="st4" width="17" height="13"/>
<rect x="1105.23" y="67.26" class="st4" width="17" height="13"/>
<g>
	<rect x="992.19" y="17.79" class="st6" width="34" height="76.32"/>
	<path class="st6" d="M1025.69,18.44v75.03h-33V18.44L1025.69,18.44 M1026.69,17.14h-35v77.62h35V17.14L1026.69,17.14z"/>
</g>
<g>
	<path d="M1009.19,93.53c0.17,0,0.32,0.08,0.46,0.23l0.04-75.53h-0.84l-0.04,75.46C1008.92,93.58,1009.05,93.53,1009.19,93.53z"/>
	<path d="M1008.85,18.23l-0.04,75.46c0.12-0.1,0.24-0.16,0.38-0.16c0.17,0,0.32,0.08,0.46,0.23l0.04-75.53L1008.85,18.23
		L1008.85,18.23z"/>
</g>
<g>
	<rect x="998.22" y="26.64" width="4.97" height="20.2"/>
	<path d="M1002.69,27.14v19.2h-3.97v-19.2H1002.69 M1003.69,26.14h-5.97v21.2h5.97V26.14L1003.69,26.14z"/>
</g>
<g>
	<rect x="1015.19" y="26.64" width="5" height="20"/>
	<path d="M1019.69,27.14v19h-4v-19H1019.69 M1020.69,26.14h-6v21h6V26.14L1020.69,26.14z"/>
</g>
<rect x="992.23" y="67.26" class="st4" width="17" height="13"/>
<rect x="1009.23" y="67.26" class="st4" width="17" height="13"/>
<g>
	<rect x="899.19" y="17.79" class="st6" width="34" height="76.32"/>
	<path class="st6" d="M932.69,18.44v75.03h-33V18.44L932.69,18.44 M933.69,17.14h-35v77.62h35V17.14L933.69,17.14z"/>
</g>
<g>
	<path d="M916.19,93.53c0.17,0,0.32,0.08,0.46,0.23l0.04-75.53h-0.84l-0.04,75.46C915.92,93.58,916.05,93.53,916.19,93.53z"/>
	<path d="M915.85,18.23l-0.04,75.46c0.12-0.1,0.24-0.16,0.38-0.16c0.17,0,0.32,0.08,0.46,0.23l0.04-75.53L915.85,18.23L915.85,18.23
		z"/>
</g>
<g>
	<rect x="905.22" y="26.64" width="4.97" height="20.2"/>
	<path d="M909.69,27.14v19.2h-3.97v-19.2H909.69 M910.69,26.14h-5.97v21.2h5.97V26.14L910.69,26.14z"/>
</g>
<g>
	<rect x="922.19" y="26.64" width="5" height="20"/>
	<path d="M926.69,27.14v19h-4v-19H926.69 M927.69,26.14h-6v21h6V26.14L927.69,26.14z"/>
</g>
<rect x="899.23" y="67.26" class="st4" width="17" height="13"/>
<rect x="916.23" y="67.26" class="st4" width="17" height="13"/>
<g>
	<rect x="742.19" y="18.79" class="st6" width="34" height="76.32"/>
	<path class="st6" d="M775.69,19.44v75.03h-33V19.44L775.69,19.44 M776.69,18.14h-35v77.62h35V18.14L776.69,18.14z"/>
</g>
<g>
	<path d="M759.19,94.53c0.17,0,0.32,0.08,0.46,0.23l0.04-75.53h-0.84l-0.04,75.46C758.92,94.58,759.05,94.53,759.19,94.53z"/>
	<path d="M758.85,19.23l-0.04,75.46c0.12-0.1,0.24-0.16,0.38-0.16c0.17,0,0.32,0.08,0.46,0.23l0.04-75.53L758.85,19.23L758.85,19.23
		z"/>
</g>
<g>
	<rect x="748.22" y="27.64" width="4.97" height="20.2"/>
	<path d="M752.69,28.14v19.2h-3.97v-19.2H752.69 M753.69,27.14h-5.97v21.2h5.97V27.14L753.69,27.14z"/>
</g>
<g>
	<rect x="765.19" y="27.64" width="5" height="20"/>
	<path d="M769.69,28.14v19h-4v-19H769.69 M770.69,27.14h-6v21h6V27.14L770.69,27.14z"/>
</g>
<rect x="742.23" y="68.26" class="st4" width="17" height="13"/>
<rect x="759.23" y="68.26" class="st4" width="17" height="13"/>
<rect x="1035.01" y="23.73" class="st2" width="43" height="32"/>
<rect x="849.01" y="23.73" class="st2" width="43" height="32"/>
<rect x="940.01" y="23.73" class="st2" width="43" height="32"/>
<rect x="689.99" y="24.95" class="st2" width="43" height="32"/>
<g>
	<rect x="649.17" y="19.01" class="st6" width="34" height="76.32"/>
	<path class="st6" d="M682.67,19.66v75.03h-33V19.66L682.67,19.66 M683.67,18.36h-35v77.62h35V18.36L683.67,18.36z"/>
</g>
<g>
	<path d="M666.17,94.75c0.17,0,0.32,0.08,0.46,0.23l0.04-75.53h-0.84l-0.04,75.46C665.9,94.8,666.03,94.75,666.17,94.75z"/>
	<path d="M665.83,19.45l-0.04,75.46c0.12-0.1,0.24-0.16,0.38-0.16c0.17,0,0.32,0.08,0.46,0.23l0.04-75.53L665.83,19.45L665.83,19.45
		z"/>
</g>
<g>
	<rect x="655.2" y="27.86" width="4.97" height="20.2"/>
	<path d="M659.67,28.36v19.2h-3.97v-19.2H659.67 M660.67,27.36h-5.97v21.2h5.97V27.36L660.67,27.36z"/>
</g>
<g>
	<rect x="672.17" y="27.86" width="5" height="20"/>
	<path d="M676.67,28.36v19h-4v-19H676.67 M677.67,27.36h-6v21h6V27.36L677.67,27.36z"/>
</g>
<rect x="649.21" y="68.48" class="st4" width="17" height="13"/>
<rect x="666.21" y="68.48" class="st4" width="17" height="13"/>
<rect x="599.54" y="24.98" class="st2" width="43" height="32"/>
<g>
	<rect x="558.72" y="19.04" class="st6" width="34" height="76.32"/>
	<path class="st6" d="M592.22,19.69v75.03h-33V19.69L592.22,19.69 M593.22,18.39h-35v77.62h35V18.39L593.22,18.39z"/>
</g>
<g>
	<path d="M575.72,94.78c0.17,0,0.32,0.08,0.46,0.23l0.04-75.53h-0.84l-0.04,75.46C575.45,94.83,575.58,94.78,575.72,94.78z"/>
	<path d="M575.38,19.48l-0.04,75.46c0.12-0.1,0.24-0.16,0.38-0.16c0.17,0,0.32,0.08,0.46,0.23l0.04-75.53L575.38,19.48L575.38,19.48
		z"/>
</g>
<g>
	<rect x="564.75" y="27.89" width="4.97" height="20.2"/>
	<path d="M569.22,28.39v19.2h-3.97v-19.2H569.22 M570.22,27.39h-5.97v21.2h5.97V27.39L570.22,27.39z"/>
</g>
<g>
	<rect x="581.72" y="27.89" width="5" height="20"/>
	<path d="M586.22,28.39v19h-4v-19H586.22 M587.22,27.39h-6v21h6V27.39L587.22,27.39z"/>
</g>
<rect x="558.76" y="68.51" class="st4" width="17" height="13"/>
<rect x="575.76" y="68.51" class="st4" width="17" height="13"/>
<rect x="506.52" y="25.2" class="st2" width="43" height="32"/>
<g>
	<rect x="465.7" y="19.26" class="st6" width="34" height="76.32"/>
	<path class="st6" d="M499.2,19.91v75.03h-33V19.91L499.2,19.91 M500.2,18.61h-35v77.62h35V18.61L500.2,18.61z"/>
</g>
<g>
	<path d="M482.7,95c0.17,0,0.32,0.08,0.46,0.23l0.04-75.53h-0.84l-0.04,75.46C482.43,95.05,482.56,95,482.7,95z"/>
	<path d="M482.36,19.7l-0.04,75.46c0.12-0.1,0.24-0.16,0.38-0.16c0.17,0,0.32,0.08,0.46,0.23l0.04-75.53L482.36,19.7L482.36,19.7z"
		/>
</g>
<g>
	<rect x="471.73" y="28.11" width="4.97" height="20.2"/>
	<path d="M476.2,28.61v19.2h-3.97v-19.2H476.2 M477.2,27.61h-5.97v21.2h5.97V27.61L477.2,27.61z"/>
</g>
<g>
	<rect x="488.7" y="28.11" width="5" height="20"/>
	<path d="M493.2,28.61v19h-4v-19H493.2 M494.2,27.61h-6v21h6V27.61L494.2,27.61z"/>
</g>
<rect x="465.74" y="68.73" class="st4" width="17" height="13"/>
<rect x="482.74" y="68.73" class="st4" width="17" height="13"/>
<rect x="785.01" y="23.73" class="st2" width="43" height="32"/>
<g>
	<rect x="310.81" y="18.47" class="st6" width="34" height="76.32"/>
	<path class="st6" d="M344.31,19.12v75.03h-33V19.12L344.31,19.12 M345.31,17.83h-35v77.62h35V17.83L345.31,17.83z"/>
</g>
<g>
	<path d="M327.81,94.22c0.17,0,0.32,0.08,0.46,0.23l0.04-75.53h-0.84l-0.04,75.46C327.54,94.27,327.67,94.22,327.81,94.22z"/>
	<path d="M327.47,18.92l-0.04,75.46c0.12-0.1,0.24-0.16,0.38-0.16c0.17,0,0.32,0.08,0.46,0.23l0.04-75.53L327.47,18.92L327.47,18.92
		z"/>
</g>
<g>
	<rect x="316.84" y="27.33" width="4.97" height="20.2"/>
	<path d="M321.31,27.83v19.2h-3.97v-19.2H321.31 M322.31,26.83h-5.97v21.2h5.97V26.83L322.31,26.83z"/>
</g>
<g>
	<rect x="333.81" y="27.33" width="5" height="20"/>
	<path d="M338.31,27.83v19h-4v-19H338.31 M339.31,26.83h-6v21h6V26.83L339.31,26.83z"/>
</g>
<rect x="310.85" y="67.94" class="st4" width="17" height="13"/>
<rect x="327.85" y="67.94" class="st4" width="17" height="13"/>
<rect x="258.61" y="24.64" class="st2" width="43" height="32"/>
<g>
	<rect x="217.79" y="18.69" class="st6" width="34" height="76.32"/>
	<path class="st6" d="M251.29,19.34v75.03h-33V19.34L251.29,19.34 M252.29,18.05h-35v77.62h35V18.05L252.29,18.05z"/>
</g>
<g>
	<path d="M234.79,94.44c0.17,0,0.32,0.08,0.46,0.23l0.04-75.53h-0.84l-0.04,75.46C234.52,94.49,234.65,94.44,234.79,94.44z"/>
	<path d="M234.45,19.14l-0.04,75.46c0.12-0.1,0.24-0.16,0.38-0.16c0.17,0,0.32,0.08,0.46,0.23l0.04-75.53L234.45,19.14L234.45,19.14
		z"/>
</g>
<g>
	<rect x="223.82" y="27.55" width="4.97" height="20.2"/>
	<path d="M228.29,28.05v19.2h-3.97v-19.2H228.29 M229.29,27.05h-5.97v21.2h5.97V27.05L229.29,27.05z"/>
</g>
<g>
	<rect x="240.79" y="27.55" width="5" height="20"/>
	<path d="M245.29,28.05v19h-4v-19H245.29 M246.29,27.05h-6v21h6V27.05L246.29,27.05z"/>
</g>
<rect x="217.83" y="68.16" class="st4" width="17" height="13"/>
<rect x="234.83" y="68.16" class="st4" width="17" height="13"/>
<rect x="168.16" y="24.67" class="st2" width="43" height="32"/>
<g>
	<rect x="127.34" y="18.72" class="st6" width="34" height="76.32"/>
	<path class="st6" d="M160.84,19.37V94.4h-33V19.37L160.84,19.37 M161.84,18.08h-35v77.62h35V18.08L161.84,18.08z"/>
</g>
<g>
	<path d="M144.34,94.47c0.17,0,0.32,0.08,0.46,0.23l0.04-75.53H144l-0.04,75.46C144.07,94.52,144.2,94.47,144.34,94.47z"/>
	<path d="M144,19.17l-0.04,75.46c0.12-0.1,0.24-0.16,0.38-0.16c0.17,0,0.32,0.08,0.46,0.23l0.04-75.53L144,19.17L144,19.17z"/>
</g>
<g>
	<rect x="133.37" y="27.58" width="4.97" height="20.2"/>
	<path d="M137.84,28.08v19.2h-3.97v-19.2H137.84 M138.84,27.08h-5.97v21.2h5.97V27.08L138.84,27.08z"/>
</g>
<g>
	<rect x="150.34" y="27.58" width="5" height="20"/>
	<path d="M154.84,28.08v19h-4v-19H154.84 M155.84,27.08h-6v21h6V27.08L155.84,27.08z"/>
</g>
<rect x="127.38" y="68.19" class="st4" width="17" height="13"/>
<rect x="144.38" y="68.19" class="st4" width="17" height="13"/>
<rect x="75.14" y="24.89" class="st2" width="43" height="32"/>
<rect x="353.63" y="23.42" class="st2" width="43" height="32"/>
<rect x="413.01" y="24.73" class="st2" width="43" height="32"/>
</svg>
